<svg width="100" height="100" viewBox="0 0 100 100" fill="none" xmlns="http://www.w3.org/2000/svg">
<g clip-path="url(#clip0_879_2)">
<rect width="100" height="100" rx="25" fill="#D9D9D9"/>
<g filter="url(#filter0_d_879_2)">
<path d="M87.6293 69.0977L69.1849 27.431C68.5292 25.9492 67.1002 25 65.5274 25H52.6511L52.9743 28.0156C53.0403 28.6302 52.5508 29.1667 51.9241 29.1667H48.0766C47.4499 29.1667 46.9603 28.6302 47.0263 28.0156L47.3496 25H34.4732C32.8991 25 31.4702 25.9492 30.8144 27.431L12.37 69.0977C11.1496 71.8568 13.0971 75 16.0302 75H42.0019L43.3622 62.2812C43.4757 61.2214 44.3809 60.4167 45.4615 60.4167H54.5392C55.6198 60.4167 56.5249 61.2214 56.6384 62.2812L57.9987 75H83.9705C86.9036 75 88.8511 71.8568 87.6293 69.0977ZM46.3587 34.2656C46.3861 34.0096 46.5086 33.7727 46.7025 33.6005C46.8964 33.4284 47.1481 33.3332 47.409 33.3333H52.593C53.1327 33.3333 53.5865 33.7357 53.6433 34.2656L54.2502 39.9401C54.3492 40.8633 53.6156 41.6667 52.6761 41.6667H47.3271C46.3864 41.6667 45.6541 40.8633 45.7531 39.9401L46.3587 34.2656ZM53.6472 56.25H46.3521C45.0986 56.25 44.1209 55.1784 44.2529 53.9479L44.9218 47.6979C45.0353 46.638 45.9404 45.8333 47.021 45.8333H52.9783C54.0589 45.8333 54.964 46.638 55.0775 47.6979L55.7465 53.9479C55.8784 55.1784 54.9007 56.25 53.6472 56.25Z" fill="black"/>
</g>
</g>
<defs>
<filter id="filter0_d_879_2" x="8" y="25" width="84" height="58" filterUnits="userSpaceOnUse" color-interpolation-filters="sRGB">
<feFlood flood-opacity="0" result="BackgroundImageFix"/>
<feColorMatrix in="SourceAlpha" type="matrix" values="0 0 0 0 0 0 0 0 0 0 0 0 0 0 0 0 0 0 127 0" result="hardAlpha"/>
<feOffset dy="4"/>
<feGaussianBlur stdDeviation="2"/>
<feComposite in2="hardAlpha" operator="out"/>
<feColorMatrix type="matrix" values="0 0 0 0 0 0 0 0 0 0 0 0 0 0 0 0 0 0 0.25 0"/>
<feBlend mode="normal" in2="BackgroundImageFix" result="effect1_dropShadow_879_2"/>
<feBlend mode="normal" in="SourceGraphic" in2="effect1_dropShadow_879_2" result="shape"/>
</filter>
<clipPath id="clip0_879_2">
<rect width="100" height="100" fill="white"/>
</clipPath>
</defs>
</svg>
