<svg width="100" height="100" viewBox="0 0 100 100" fill="none" xmlns="http://www.w3.org/2000/svg">
<g clip-path="url(#clip0_880_6)">
<rect width="100" height="100" rx="25" fill="black"/>
<path fill-rule="evenodd" clip-rule="evenodd" d="M65.9907 25C68.0818 24.9999 70.0939 25.7988 71.6153 27.2334C73.1367 28.668 74.0525 30.6297 74.1752 32.7172L74.1888 33.1981V71.4561C74.1887 71.9111 74.075 72.3588 73.858 72.7586C73.641 73.1585 73.3276 73.4978 72.9463 73.7459C72.5649 73.994 72.1277 74.1429 71.6742 74.1792C71.2207 74.2155 70.7653 74.1381 70.3494 73.9538L70.0214 73.7844L62.5748 69.1989L55.1254 73.7844C54.7439 74.0188 54.3105 74.1559 53.8636 74.1835C53.4166 74.2111 52.9697 74.1285 52.5621 73.9429L52.2615 73.7844L44.8122 69.1989L37.3628 73.7844C36.9724 74.0247 36.5278 74.1629 36.0699 74.1863C35.6121 74.2097 35.1557 74.1176 34.7428 73.9184C34.3299 73.7191 33.9737 73.4192 33.7072 73.0462C33.4406 72.6732 33.2721 72.2392 33.2173 71.784L33.1981 71.4561V55.0598H27.7327C27.0634 55.0597 26.4174 54.814 25.9172 54.3692C25.417 53.9245 25.0974 53.3116 25.0191 52.6469L25 52.3271V31.8318C24.9997 30.0973 25.6592 28.4276 26.8447 27.1615C28.0302 25.8953 29.6528 25.1274 31.3836 25.0137L31.8318 25H65.9907ZM57.7925 49.5944H46.8617C46.1369 49.5944 45.4419 49.8823 44.9294 50.3948C44.4169 50.9073 44.129 51.6024 44.129 52.3271C44.129 53.0519 44.4169 53.747 44.9294 54.2594C45.4419 54.7719 46.1369 55.0598 46.8617 55.0598H57.7925C58.5173 55.0598 59.2124 54.7719 59.7249 54.2594C60.2373 53.747 60.5253 53.0519 60.5253 52.3271C60.5253 51.6024 60.2373 50.9073 59.7249 50.3948C59.2124 49.8823 58.5173 49.5944 57.7925 49.5944ZM31.8318 30.4654C31.4694 30.4654 31.1219 30.6094 30.8656 30.8656C30.6094 31.1219 30.4654 31.4694 30.4654 31.8318V49.5944H33.1981V31.8318C33.1981 31.4694 33.0542 31.1219 32.7979 30.8656C32.5417 30.6094 32.1942 30.4654 31.8318 30.4654ZM60.5253 38.6636H46.8617C46.1652 38.6643 45.4953 38.931 44.9888 39.4092C44.4823 39.8873 44.1775 40.5408 44.1367 41.2361C44.0959 41.9314 44.3221 42.6161 44.7692 43.1502C45.2162 43.6843 45.8503 44.0276 46.542 44.1099L46.8617 44.129H60.5253C61.2218 44.1282 61.8917 43.8615 62.3982 43.3834C62.9046 42.9052 63.2094 42.2517 63.2502 41.5564C63.2911 40.8611 63.0648 40.1764 62.6178 39.6423C62.1707 39.1082 61.5366 38.765 60.845 38.6827L60.5253 38.6636Z" fill="#D9D9D9"/>
</g>
<defs>
<clipPath id="clip0_880_6">
<rect width="100" height="100" fill="white"/>
</clipPath>
</defs>
</svg>
