<svg width="100" height="100" viewBox="0 0 100 100" fill="none" xmlns="http://www.w3.org/2000/svg">
<g clip-path="url(#clip0_882_10)">
<rect width="100" height="100" rx="25" fill="black"/>
<g filter="url(#filter0_i_882_10)">
<path d="M38.6301 30H50.0714V38.1059H41.7328L35.9151 47.4676H26.0251L38.6301 30Z" fill="white"/>
</g>
<g filter="url(#filter1_i_882_10)">
<path d="M57.4661 33.8566H51.2057V38.1727H55.7683L58.9516 43.1575H64.3631L57.4661 33.8566Z" fill="white"/>
</g>
<g filter="url(#filter2_i_882_10)">
<path d="M60.2546 50.7002H46.8704V57.1916H56.1539L65.5769 69.7557H75L60.2546 50.7002Z" fill="white"/>
</g>
<g filter="url(#filter3_i_882_10)">
<path d="M40.7454 69.7556L58.6666 69.7556L52.3846 61.7023H44.375L37.5694 52.4014H26L40.7454 69.7556Z" fill="white"/>
</g>
<g filter="url(#filter4_i_882_10)">
<path d="M81.3738 42.5304L77.7983 45.2285C77.9733 45.469 78.1944 45.6723 78.4488 45.8264C78.7032 45.9805 78.9857 46.0824 79.2799 46.1262C79.5741 46.1699 79.8741 46.1547 80.1623 46.0813C80.4505 46.0078 80.7213 45.8778 80.9587 45.6986C81.1961 45.5194 81.3955 45.2948 81.5451 45.0377C81.6948 44.7807 81.7918 44.4964 81.8304 44.2015C81.8691 43.9066 81.8486 43.6069 81.7702 43.32C81.6918 43.0331 81.557 42.7646 81.3738 42.5304ZM70.7127 47.0614L71.3862 47.954L85.6742 37.1719L85.0007 36.2793L83.754 36.2824C82.9009 36.2853 81.8996 35.8851 81.5294 35.3945L77.8229 30.4836C76.744 29.0815 75.1552 28.1622 73.402 27.9254C71.6488 27.6887 69.8731 28.1537 68.4609 29.2194C67.0488 30.285 66.1144 31.8651 65.861 33.616C65.6076 35.367 66.0557 37.1471 67.1079 38.5694L70.8142 43.4815C71.1844 43.972 71.2944 45.0449 71.0576 45.8645L70.7127 47.0614Z" fill="white"/>
</g>
</g>
<defs>
<filter id="filter0_i_882_10" x="26.0251" y="30" width="24.0463" height="21.4675" filterUnits="userSpaceOnUse" color-interpolation-filters="sRGB">
<feFlood flood-opacity="0" result="BackgroundImageFix"/>
<feBlend mode="normal" in="SourceGraphic" in2="BackgroundImageFix" result="shape"/>
<feColorMatrix in="SourceAlpha" type="matrix" values="0 0 0 0 0 0 0 0 0 0 0 0 0 0 0 0 0 0 127 0" result="hardAlpha"/>
<feOffset dy="4"/>
<feGaussianBlur stdDeviation="2"/>
<feComposite in2="hardAlpha" operator="arithmetic" k2="-1" k3="1"/>
<feColorMatrix type="matrix" values="0 0 0 0 0 0 0 0 0 0 0 0 0 0 0 0 0 0 0.25 0"/>
<feBlend mode="normal" in2="shape" result="effect1_innerShadow_882_10"/>
</filter>
<filter id="filter1_i_882_10" x="51.2057" y="33.8566" width="13.1574" height="13.3009" filterUnits="userSpaceOnUse" color-interpolation-filters="sRGB">
<feFlood flood-opacity="0" result="BackgroundImageFix"/>
<feBlend mode="normal" in="SourceGraphic" in2="BackgroundImageFix" result="shape"/>
<feColorMatrix in="SourceAlpha" type="matrix" values="0 0 0 0 0 0 0 0 0 0 0 0 0 0 0 0 0 0 127 0" result="hardAlpha"/>
<feOffset dy="4"/>
<feGaussianBlur stdDeviation="2"/>
<feComposite in2="hardAlpha" operator="arithmetic" k2="-1" k3="1"/>
<feColorMatrix type="matrix" values="0 0 0 0 0 0 0 0 0 0 0 0 0 0 0 0 0 0 0.25 0"/>
<feBlend mode="normal" in2="shape" result="effect1_innerShadow_882_10"/>
</filter>
<filter id="filter2_i_882_10" x="46.8704" y="50.7002" width="28.1296" height="23.0555" filterUnits="userSpaceOnUse" color-interpolation-filters="sRGB">
<feFlood flood-opacity="0" result="BackgroundImageFix"/>
<feBlend mode="normal" in="SourceGraphic" in2="BackgroundImageFix" result="shape"/>
<feColorMatrix in="SourceAlpha" type="matrix" values="0 0 0 0 0 0 0 0 0 0 0 0 0 0 0 0 0 0 127 0" result="hardAlpha"/>
<feOffset dy="4"/>
<feGaussianBlur stdDeviation="2"/>
<feComposite in2="hardAlpha" operator="arithmetic" k2="-1" k3="1"/>
<feColorMatrix type="matrix" values="0 0 0 0 0 0 0 0 0 0 0 0 0 0 0 0 0 0 0.25 0"/>
<feBlend mode="normal" in2="shape" result="effect1_innerShadow_882_10"/>
</filter>
<filter id="filter3_i_882_10" x="26" y="52.4014" width="32.6666" height="21.3542" filterUnits="userSpaceOnUse" color-interpolation-filters="sRGB">
<feFlood flood-opacity="0" result="BackgroundImageFix"/>
<feBlend mode="normal" in="SourceGraphic" in2="BackgroundImageFix" result="shape"/>
<feColorMatrix in="SourceAlpha" type="matrix" values="0 0 0 0 0 0 0 0 0 0 0 0 0 0 0 0 0 0 127 0" result="hardAlpha"/>
<feOffset dy="4"/>
<feGaussianBlur stdDeviation="2"/>
<feComposite in2="hardAlpha" operator="arithmetic" k2="-1" k3="1"/>
<feColorMatrix type="matrix" values="0 0 0 0 0 0 0 0 0 0 0 0 0 0 0 0 0 0 0.25 0"/>
<feBlend mode="normal" in2="shape" result="effect1_innerShadow_882_10"/>
</filter>
<filter id="filter4_i_882_10" x="65.7918" y="27.865" width="19.8824" height="24.089" filterUnits="userSpaceOnUse" color-interpolation-filters="sRGB">
<feFlood flood-opacity="0" result="BackgroundImageFix"/>
<feBlend mode="normal" in="SourceGraphic" in2="BackgroundImageFix" result="shape"/>
<feColorMatrix in="SourceAlpha" type="matrix" values="0 0 0 0 0 0 0 0 0 0 0 0 0 0 0 0 0 0 127 0" result="hardAlpha"/>
<feOffset dy="4"/>
<feGaussianBlur stdDeviation="2"/>
<feComposite in2="hardAlpha" operator="arithmetic" k2="-1" k3="1"/>
<feColorMatrix type="matrix" values="0 0 0 0 0 0 0 0 0 0 0 0 0 0 0 0 0 0 0.25 0"/>
<feBlend mode="normal" in2="shape" result="effect1_innerShadow_882_10"/>
</filter>
<clipPath id="clip0_882_10">
<rect width="100" height="100" fill="white"/>
</clipPath>
</defs>
</svg>
